<svg viewBox="0 0 1080 720" xmlns="http://www.w3.org/2000/svg" role="img" aria-label="Relaxed tan and white dog on a bed">
  <defs>
    <linearGradient id="lightGrad" x1="0" y1="0" x2="1" y2="1">
      <stop offset="0%" stop-color="#f6f0e8" stop-opacity="0.48" />
      <stop offset="100%" stop-color="#d6d9dd" stop-opacity="0" />
    </linearGradient>
    <filter id="softShadow" x="-30%" y="-30%" width="160%" height="160%">
      <feOffset dx="0" dy="24" in="SourceAlpha" result="shadowOffset" />
      <feGaussianBlur in="shadowOffset" stdDeviation="20" result="shadowBlur" />
      <feColorMatrix in="shadowBlur" type="matrix" values="0 0 0 0 0.04 0 0 0 0 0.08 0 0 0 0 0.16 0 0 0 0.22 0" />
      <feBlend in="SourceGraphic" in2="shadowBlur" mode="normal" />
    </filter>
  </defs>
  <rect x="0" y="0" width="1080" height="720" fill="#1f3a63" />
  <ellipse cx="670" cy="190" rx="160" ry="90" fill="#6aa76a" opacity="0.24" />
  <ellipse cx="820" cy="170" rx="90" ry="60" fill="#f6efe6" opacity="0.15" />
  <rect x="0" y="0" width="1080" height="720" fill="url(#lightGrad)" />
  <g class="bed-group">
    <path d="M120 510 C180 470 310 440 520 450 C740 460 860 500 930 520 L930 720 L120 720 Z" fill="#1f3a63" />
    <path d="M120 510 C170 480 320 455 520 460 C760 470 860 510 930 520 L930 590 C840 560 740 520 520 520 C290 520 180 540 120 590 Z" fill="#d6d9dd" opacity="0.94" />
    <path d="M120 510 C170 520 320 500 520 500 C740 500 850 520 930 520" stroke="#ffffff" stroke-opacity="0.28" stroke-width="5" fill="none" />
  </g>
  <g class="dog-shadow" transform="translate(360 520)">
    <ellipse cx="120" cy="40" rx="170" ry="30" fill="#0d1b31" opacity="0.32" />
  </g>
  <g class="dog" filter="url(#softShadow)">
    <g class="dog-body-group">
      <path class="dog-body" d="M500 380 C420 390 380 460 390 500 C390 560 450 630 520 620 C570 615 620 590 680 565 C730 545 770 520 800 485 C830 450 840 390 790 360 C750 340 710 345 680 360 C650 375 620 390 600 405 C580 420 560 430 540 435 C520 440 520 420 500 380 Z" />
      <path class="dog-chest" d="M500 380 C520 440 540 460 560 455 C580 450 600 430 620 410 C640 390 650 380 660 370 C660 360 640 345 600 345 C560 345 520 360 500 380 Z" />
      <path class="dog-spot spot-1" d="M660 420 C690 400 710 430 690 450 C670 470 640 455 660 420 Z" />
      <path class="dog-spot spot-2" d="M540 455 C560 445 580 470 560 485 C540 500 520 485 540 455 Z" />
      <path class="dog-spot spot-3" d="M605 505 C625 495 650 520 635 540 C620 560 595 545 605 505 Z" />
      <g class="fur-detail">
        <path d="M520 410 C530 400 540 415 550 410" stroke="#f6efe6" stroke-width="2" fill="none" opacity="0.48" />
        <path d="M560 440 C570 430 580 445 590 440" stroke="#f6efe6" stroke-width="2" fill="none" opacity="0.42" />
        <path d="M620 400 C635 392 645 408 660 402" stroke="#f6efe6" stroke-width="2" fill="none" opacity="0.36" />
        <path d="M640 450 C655 443 665 457 680 453" stroke="#f6efe6" stroke-width="2" fill="none" opacity="0.28" />
      </g>
    </g>
    <g class="dog-tail" transform="translate(790 430)">
      <path d="M0 0 C10 -5 18 5 30 8 C42 11 56 6 68 2" stroke="#c89a6b" stroke-width="18" fill="none" stroke-linecap="round" />
    </g>
    <g class="dog-neck">
      <path d="M560 360 C590 340 620 335 650 355 C660 360 665 380 655 390 C640 405 610 410 580 405 C560 402 550 390 560 360 Z" fill="#f6efe6" />
    </g>
    <g class="dog-legs">
      <path class="dog-leg front-leg" d="M540 560 C540 580 540 590 550 595 C560 600 570 598 580 588" stroke="#f6efe6" stroke-width="24" stroke-linecap="round" fill="none" />
      <path class="dog-leg front-leg" d="M610 555 C610 575 610 585 620 590 C630 595 640 590 650 580" stroke="#f6efe6" stroke-width="24" stroke-linecap="round" fill="none" />
      <path class="dog-leg back-leg" d="M720 520 C720 545 720 565 725 575 C730 585 745 588 755 575" stroke="#c89a6b" stroke-width="24" stroke-linecap="round" fill="none" />
      <path class="dog-leg back-leg" d="M760 515 C760 540 760 560 765 572 C770 584 784 588 796 575" stroke="#c89a6b" stroke-width="24" stroke-linecap="round" fill="none" />
    </g>
    <g class="dog-head-group" transform="translate(540 250)">
      <path class="dog-head" d="M0 0 C-30 -8 -72 12 -84 50 C-92 78 -80 112 -56 132 C-36 148 -10 152 24 150 C56 147 88 135 106 110 C120 90 130 55 118 28 C106 4 76 -12 40 -4 Z" />
      <path class="dog-ear ear-left" d="M-52 8 C-74 -20 -84 -22 -98 8 C-106 28 -94 58 -70 48 C-62 44 -56 28 -52 8 Z" />
      <path class="dog-ear ear-right" d="M70 10 C92 -18 108 -22 118 4 C124 22 118 50 96 50 C88 50 80 34 70 10 Z" />
      <g class="dog-face">
        <ellipse class="dog-eye left-eye" cx="-18" cy="70" rx="10" ry="12" fill="#1f1b18" />
        <ellipse class="dog-eye right-eye" cx="28" cy="70" rx="10" ry="12" fill="#1f1b18" />
        <path class="dog-nose" d="M2 86 C-5 94 5 94 2 86 Z" fill="#2f1b14" />
        <path class="dog-mouth" d="M-8 96 C-4 102 6 102 10 96" stroke="#2f1b14" stroke-width="2" fill="none" stroke-linecap="round" />
        <path class="dog-eye-highlight" d="M-22 62 C-21 60 -18 60 -17 63" fill="#ffffff" opacity="0.9" />
        <path class="dog-eye-highlight" d="M24 62 C25 60 28 60 29 63" fill="#ffffff" opacity="0.9" />
        <g class="dog-eyelid left-lid"><path d="M-28 65 Q-18 80 -8 65" fill="#f6efe6" /></g>
        <g class="dog-eyelid right-lid"><path d="M18 65 Q28 80 38 65" fill="#f6efe6" /></g>
      </g>
    </g>
    <g class="dog-collar">
      <path d="M530 330 C560 320 620 320 650 335 C652 339 652 350 650 355 C620 365 560 365 530 355 C528 350 528 340 530 330 Z" fill="#6aa76a" />
      <circle class="dog-tag" cx="590" cy="352" r="10" fill="#f2d266" />
    </g>
  </g>
</svg>
